<mxfile host="Electron" modified="2023-12-09T16:28:32.486Z" agent="Mozilla/5.0 (Windows NT 10.0; Win64; x64) AppleWebKit/537.36 (KHTML, like Gecko) draw.io/22.1.2 Chrome/114.0.5735.289 Electron/25.9.4 Safari/537.36" etag="3XkiZ4eJgg_ofPV4XhdL" version="22.1.2" type="device">
  <diagram id="C5RBs43oDa-KdzZeNtuy" name="Page-1">
    <mxGraphModel dx="2790" dy="1473" grid="1" gridSize="10" guides="1" tooltips="1" connect="1" arrows="1" fold="1" page="1" pageScale="1" pageWidth="827" pageHeight="1169" math="0" shadow="0">
      <root>
        <mxCell id="WIyWlLk6GJQsqaUBKTNV-0" />
        <mxCell id="WIyWlLk6GJQsqaUBKTNV-1" parent="WIyWlLk6GJQsqaUBKTNV-0" />
        <mxCell id="qcm8VBA3hpoThETWjGBO-6" style="edgeStyle=orthogonalEdgeStyle;rounded=0;orthogonalLoop=1;jettySize=auto;html=1;exitX=0.5;exitY=1;exitDx=0;exitDy=0;entryX=0.5;entryY=0;entryDx=0;entryDy=0;" edge="1" parent="WIyWlLk6GJQsqaUBKTNV-1" source="qcm8VBA3hpoThETWjGBO-0" target="qcm8VBA3hpoThETWjGBO-1">
          <mxGeometry relative="1" as="geometry" />
        </mxCell>
        <mxCell id="qcm8VBA3hpoThETWjGBO-0" value="应用启动页面" style="rounded=1;whiteSpace=wrap;html=1;" vertex="1" parent="WIyWlLk6GJQsqaUBKTNV-1">
          <mxGeometry x="414" y="80" width="120" height="60" as="geometry" />
        </mxCell>
        <mxCell id="qcm8VBA3hpoThETWjGBO-4" style="edgeStyle=orthogonalEdgeStyle;rounded=0;orthogonalLoop=1;jettySize=auto;html=1;exitX=1;exitY=0.5;exitDx=0;exitDy=0;entryX=0;entryY=0.5;entryDx=0;entryDy=0;" edge="1" parent="WIyWlLk6GJQsqaUBKTNV-1" source="qcm8VBA3hpoThETWjGBO-1" target="qcm8VBA3hpoThETWjGBO-2">
          <mxGeometry relative="1" as="geometry" />
        </mxCell>
        <mxCell id="qcm8VBA3hpoThETWjGBO-5" value="注册" style="edgeLabel;html=1;align=center;verticalAlign=middle;resizable=0;points=[];" vertex="1" connectable="0" parent="qcm8VBA3hpoThETWjGBO-4">
          <mxGeometry relative="1" as="geometry">
            <mxPoint as="offset" />
          </mxGeometry>
        </mxCell>
        <mxCell id="qcm8VBA3hpoThETWjGBO-8" style="edgeStyle=orthogonalEdgeStyle;rounded=0;orthogonalLoop=1;jettySize=auto;html=1;exitX=0.5;exitY=1;exitDx=0;exitDy=0;entryX=0.5;entryY=0;entryDx=0;entryDy=0;" edge="1" parent="WIyWlLk6GJQsqaUBKTNV-1" source="qcm8VBA3hpoThETWjGBO-1" target="qcm8VBA3hpoThETWjGBO-7">
          <mxGeometry relative="1" as="geometry" />
        </mxCell>
        <mxCell id="qcm8VBA3hpoThETWjGBO-9" value="登录" style="edgeLabel;html=1;align=center;verticalAlign=middle;resizable=0;points=[];" vertex="1" connectable="0" parent="qcm8VBA3hpoThETWjGBO-8">
          <mxGeometry x="-0.15" y="-3" relative="1" as="geometry">
            <mxPoint as="offset" />
          </mxGeometry>
        </mxCell>
        <mxCell id="qcm8VBA3hpoThETWjGBO-1" value="用户登录界面" style="rounded=1;whiteSpace=wrap;html=1;" vertex="1" parent="WIyWlLk6GJQsqaUBKTNV-1">
          <mxGeometry x="414" y="180" width="120" height="60" as="geometry" />
        </mxCell>
        <mxCell id="qcm8VBA3hpoThETWjGBO-2" value="用户注册界面" style="rounded=1;whiteSpace=wrap;html=1;" vertex="1" parent="WIyWlLk6GJQsqaUBKTNV-1">
          <mxGeometry x="584" y="180" width="120" height="60" as="geometry" />
        </mxCell>
        <mxCell id="qcm8VBA3hpoThETWjGBO-7" value="用户首页界面" style="rounded=1;whiteSpace=wrap;html=1;" vertex="1" parent="WIyWlLk6GJQsqaUBKTNV-1">
          <mxGeometry x="414" y="280" width="120" height="60" as="geometry" />
        </mxCell>
        <mxCell id="qcm8VBA3hpoThETWjGBO-11" value="个人信息界面" style="rounded=1;whiteSpace=wrap;html=1;" vertex="1" parent="WIyWlLk6GJQsqaUBKTNV-1">
          <mxGeometry x="534" y="380" width="120" height="60" as="geometry" />
        </mxCell>
        <mxCell id="qcm8VBA3hpoThETWjGBO-16" value="" style="endArrow=classic;startArrow=classic;html=1;rounded=0;exitX=1;exitY=0.5;exitDx=0;exitDy=0;entryX=0.532;entryY=-0.017;entryDx=0;entryDy=0;entryPerimeter=0;" edge="1" parent="WIyWlLk6GJQsqaUBKTNV-1" source="qcm8VBA3hpoThETWjGBO-7" target="qcm8VBA3hpoThETWjGBO-11">
          <mxGeometry width="50" height="50" relative="1" as="geometry">
            <mxPoint x="404" y="530" as="sourcePoint" />
            <mxPoint x="454" y="480" as="targetPoint" />
            <Array as="points">
              <mxPoint x="598" y="310" />
            </Array>
          </mxGeometry>
        </mxCell>
        <mxCell id="qcm8VBA3hpoThETWjGBO-17" value="预约挂号界面" style="rounded=1;whiteSpace=wrap;html=1;" vertex="1" parent="WIyWlLk6GJQsqaUBKTNV-1">
          <mxGeometry x="294" y="380" width="120" height="60" as="geometry" />
        </mxCell>
        <mxCell id="qcm8VBA3hpoThETWjGBO-18" value="" style="endArrow=classic;startArrow=classic;html=1;rounded=0;exitX=0.5;exitY=0;exitDx=0;exitDy=0;entryX=0;entryY=0.5;entryDx=0;entryDy=0;" edge="1" parent="WIyWlLk6GJQsqaUBKTNV-1" source="qcm8VBA3hpoThETWjGBO-17" target="qcm8VBA3hpoThETWjGBO-7">
          <mxGeometry width="50" height="50" relative="1" as="geometry">
            <mxPoint x="344" y="360" as="sourcePoint" />
            <mxPoint x="394" y="310" as="targetPoint" />
            <Array as="points">
              <mxPoint x="354" y="310" />
            </Array>
          </mxGeometry>
        </mxCell>
        <mxCell id="qcm8VBA3hpoThETWjGBO-19" value="科室列表界面" style="rounded=1;whiteSpace=wrap;html=1;" vertex="1" parent="WIyWlLk6GJQsqaUBKTNV-1">
          <mxGeometry x="294" y="480" width="120" height="60" as="geometry" />
        </mxCell>
        <mxCell id="qcm8VBA3hpoThETWjGBO-22" value="医生列表界面" style="rounded=1;whiteSpace=wrap;html=1;" vertex="1" parent="WIyWlLk6GJQsqaUBKTNV-1">
          <mxGeometry x="294" y="580" width="120" height="60" as="geometry" />
        </mxCell>
        <mxCell id="qcm8VBA3hpoThETWjGBO-23" value="医生信息界面" style="rounded=1;whiteSpace=wrap;html=1;" vertex="1" parent="WIyWlLk6GJQsqaUBKTNV-1">
          <mxGeometry x="124" y="580" width="120" height="60" as="geometry" />
        </mxCell>
        <mxCell id="qcm8VBA3hpoThETWjGBO-26" value="" style="endArrow=classic;startArrow=classic;html=1;rounded=0;exitX=1;exitY=0.5;exitDx=0;exitDy=0;entryX=0;entryY=0.5;entryDx=0;entryDy=0;" edge="1" parent="WIyWlLk6GJQsqaUBKTNV-1" source="qcm8VBA3hpoThETWjGBO-23" target="qcm8VBA3hpoThETWjGBO-22">
          <mxGeometry width="50" height="50" relative="1" as="geometry">
            <mxPoint x="214" y="760" as="sourcePoint" />
            <mxPoint x="264" y="710" as="targetPoint" />
          </mxGeometry>
        </mxCell>
        <mxCell id="qcm8VBA3hpoThETWjGBO-28" value="医生排班界面" style="rounded=1;whiteSpace=wrap;html=1;" vertex="1" parent="WIyWlLk6GJQsqaUBKTNV-1">
          <mxGeometry x="294" y="680" width="120" height="60" as="geometry" />
        </mxCell>
        <mxCell id="qcm8VBA3hpoThETWjGBO-30" value="挂号信息界面" style="rounded=1;whiteSpace=wrap;html=1;" vertex="1" parent="WIyWlLk6GJQsqaUBKTNV-1">
          <mxGeometry x="294" y="780" width="120" height="60" as="geometry" />
        </mxCell>
        <mxCell id="qcm8VBA3hpoThETWjGBO-32" value="" style="endArrow=classic;startArrow=classic;html=1;rounded=0;entryX=0.5;entryY=1;entryDx=0;entryDy=0;" edge="1" parent="WIyWlLk6GJQsqaUBKTNV-1" source="qcm8VBA3hpoThETWjGBO-19" target="qcm8VBA3hpoThETWjGBO-17">
          <mxGeometry width="50" height="50" relative="1" as="geometry">
            <mxPoint x="194" y="490" as="sourcePoint" />
            <mxPoint x="244" y="440" as="targetPoint" />
          </mxGeometry>
        </mxCell>
        <mxCell id="qcm8VBA3hpoThETWjGBO-33" value="" style="endArrow=classic;startArrow=classic;html=1;rounded=0;exitX=0.5;exitY=0;exitDx=0;exitDy=0;entryX=0.5;entryY=1;entryDx=0;entryDy=0;" edge="1" parent="WIyWlLk6GJQsqaUBKTNV-1" source="qcm8VBA3hpoThETWjGBO-22" target="qcm8VBA3hpoThETWjGBO-19">
          <mxGeometry width="50" height="50" relative="1" as="geometry">
            <mxPoint x="444" y="590" as="sourcePoint" />
            <mxPoint x="494" y="540" as="targetPoint" />
          </mxGeometry>
        </mxCell>
        <mxCell id="qcm8VBA3hpoThETWjGBO-34" value="" style="endArrow=classic;startArrow=classic;html=1;rounded=0;exitX=0.5;exitY=0;exitDx=0;exitDy=0;entryX=0.5;entryY=1;entryDx=0;entryDy=0;" edge="1" parent="WIyWlLk6GJQsqaUBKTNV-1" source="qcm8VBA3hpoThETWjGBO-28" target="qcm8VBA3hpoThETWjGBO-22">
          <mxGeometry width="50" height="50" relative="1" as="geometry">
            <mxPoint x="354" y="680" as="sourcePoint" />
            <mxPoint x="404" y="630" as="targetPoint" />
          </mxGeometry>
        </mxCell>
        <mxCell id="qcm8VBA3hpoThETWjGBO-35" value="" style="endArrow=classic;startArrow=classic;html=1;rounded=0;exitX=0.5;exitY=0;exitDx=0;exitDy=0;entryX=0.5;entryY=1;entryDx=0;entryDy=0;" edge="1" parent="WIyWlLk6GJQsqaUBKTNV-1" source="qcm8VBA3hpoThETWjGBO-30" target="qcm8VBA3hpoThETWjGBO-28">
          <mxGeometry width="50" height="50" relative="1" as="geometry">
            <mxPoint x="384" y="910" as="sourcePoint" />
            <mxPoint x="434" y="860" as="targetPoint" />
          </mxGeometry>
        </mxCell>
        <mxCell id="qcm8VBA3hpoThETWjGBO-36" value="支付界面" style="rounded=1;whiteSpace=wrap;html=1;" vertex="1" parent="WIyWlLk6GJQsqaUBKTNV-1">
          <mxGeometry x="294" y="880" width="120" height="60" as="geometry" />
        </mxCell>
        <mxCell id="qcm8VBA3hpoThETWjGBO-37" value="" style="endArrow=classic;startArrow=classic;html=1;rounded=0;exitX=0.5;exitY=0;exitDx=0;exitDy=0;entryX=0.5;entryY=1;entryDx=0;entryDy=0;" edge="1" parent="WIyWlLk6GJQsqaUBKTNV-1" source="qcm8VBA3hpoThETWjGBO-36" target="qcm8VBA3hpoThETWjGBO-30">
          <mxGeometry width="50" height="50" relative="1" as="geometry">
            <mxPoint x="494" y="870" as="sourcePoint" />
            <mxPoint x="544" y="820" as="targetPoint" />
          </mxGeometry>
        </mxCell>
      </root>
    </mxGraphModel>
  </diagram>
</mxfile>
